<?xml version="1.0" encoding="utf-8"?>
<!-- Generator: Adobe Illustrator 23.0.0, SVG Export Plug-In . SVG Version: 6.00 Build 0)  -->
<svg version="1.1" id="Layer_1" xmlns="http://www.w3.org/2000/svg" xmlns:xlink="http://www.w3.org/1999/xlink" x="0px" y="0px"
	 viewBox="0 0 761 211" style="enable-background:new 0 0 761 211;" xml:space="preserve">
<style type="text/css">
	.st0{fill:#353535;}
	.st1{fill:#706D6D;}
	.st2{fill:#29AE5C;}
	.st3{fill:#FDBC18;}
	.st4{fill:#E4342D;}
	.st5{fill:none;stroke:#000000;stroke-width:12;stroke-miterlimit:10;}
</style>
<g>
	<g>
		<g>
			<path class="st0" d="M80.8,83.6v37.6H34c-5.5,0-9.7-1.6-12.7-4.9c-3-3.3-4.5-7.8-4.5-13.6c0-6.9,2.3-12.8,6.9-17.6l12,8.5
				c-2.1,2.9-3.2,5.9-3.2,9.1c0,1.7,0.3,3,1,3.8c0.7,0.8,1.7,1.2,3.1,1.2l28.4-0.1v-24H80.8z M47.5,68.8c1,1,1.6,2.4,1.6,4
				c0,1.6-0.5,3-1.6,4.1c-1.1,1.1-2.4,1.6-4,1.6c-1.6,0-3-0.5-4-1.6c-1-1.1-1.6-2.4-1.6-4.1c0-1.6,0.5-3,1.6-4c1.1-1,2.4-1.5,4-1.5
				C45.1,67.3,46.5,67.8,47.5,68.8z M53.7,56.2c1,1,1.5,2.3,1.5,3.8c0,1.6-0.5,2.9-1.5,3.9c-1,1-2.3,1.5-3.9,1.5
				c-1.6,0-2.9-0.5-3.9-1.5c-1-1-1.5-2.3-1.5-3.9c0-1.5,0.5-2.8,1.5-3.8c1-1,2.3-1.5,3.9-1.5C51.4,54.6,52.7,55.2,53.7,56.2z
				 M60.2,68.8c1.1,1,1.6,2.4,1.6,4c0,1.6-0.5,3-1.6,4.1c-1,1.1-2.4,1.6-4,1.6c-1.6,0-3-0.5-4-1.6c-1.1-1.1-1.6-2.4-1.6-4.1
				c0-1.6,0.5-3,1.6-4c1-1,2.4-1.5,4-1.5C57.9,67.3,59.2,67.8,60.2,68.8z"/>
			<path class="st0" d="M89.2,67.9h15.8v53.3H89.2V67.9z"/>
			<path class="st0" d="M169,109.5c0.3,1.2,0.4,2.8,0.4,4.8c0,2.1-0.1,3.7-0.4,5c-0.3,1.3-0.6,1.9-1,1.9h-6.8
				c-4.6,0-8.3-1.2-11.2-3.5c-2.9-2.3-4.8-5.6-5.6-9.8c-2.2,0.7-4.6,1-7.1,1c-2.6,0-5-0.4-7.4-1.1v9.2c0,4-0.8,7.4-2.5,10.4
				c-1.6,3-4,5.4-7,7.1c-3.1,1.8-6.6,2.8-10.7,3l-1.9-13.4c2.4,0,4-0.6,5-1.6c0.9-1,1.4-2.9,1.4-5.5V83.6h15.8v10.8
				c2.4,0.7,4.9,1.1,7.4,1.1c2.2,0,4.5-0.3,6.6-0.9v-11h15.8v19c0,1.7,0.3,3,1,3.8c0.7,0.8,1.7,1.2,3.1,1.2h4.2
				C168.4,107.6,168.7,108.3,169,109.5z M141.5,76.9c-1-1-1.6-2.4-1.6-4c0-1.7,0.5-3,1.6-4.1c1-1,2.4-1.6,4.1-1.6
				c1.7,0,3,0.5,4.1,1.6c1,1,1.6,2.4,1.6,4.1c0,1.7-0.5,3-1.6,4c-1,1-2.4,1.5-4.1,1.5C143.9,78.5,142.5,78,141.5,76.9z M154.2,76.9
				c-1-1-1.6-2.4-1.6-4c0-1.7,0.5-3,1.6-4.1c1-1,2.4-1.6,4.1-1.6c1.7,0,3,0.5,4.1,1.6c1,1,1.6,2.4,1.6,4.1c0,1.7-0.5,3-1.6,4
				c-1,1-2.4,1.5-4.1,1.5C156.6,78.5,155.3,78,154.2,76.9z"/>
			<path class="st0" d="M189.6,67.9v53.3H168c-0.4,0-0.7-0.6-1-1.9c-0.3-1.3-0.4-2.9-0.4-5c0-2,0.1-3.6,0.4-4.8
				c0.3-1.2,0.6-1.9,1-1.9h5.8V67.9H189.6z"/>
			<path class="st0" d="M198.7,67.9h15.8v53.3h-15.8V67.9z"/>
			<path class="st0" d="M249.6,118.8c-2.9-1.6-5.2-3.7-6.8-6.5c-1.7-2.7-2.5-5.8-2.5-9.1c0-3.5,0.9-6.8,2.7-10
				c1.8-3.1,4.2-5.7,7.1-7.6s6-2.8,9.2-2.8c3.2,0,6.2,0.9,9.2,2.8c2.9,1.9,5.3,4.4,7.1,7.6c1.8,3.1,2.7,6.5,2.7,10
				c0,3.3-0.8,6.3-2.5,9.1c-1.7,2.7-3.9,4.9-6.8,6.5c-2.9,1.6-6.1,2.4-9.7,2.4C255.8,121.1,252.5,120.4,249.6,118.8z M248.9,76.2
				c-1-1-1.6-2.4-1.6-4c0-1.7,0.5-3,1.6-4.1c1-1,2.4-1.6,4.1-1.6c1.7,0,3,0.5,4.1,1.6c1,1,1.6,2.4,1.6,4.1c0,1.7-0.5,3-1.6,4
				c-1,1-2.4,1.5-4.1,1.5C251.3,77.7,250,77.2,248.9,76.2z M261.8,106.6c0.5-0.7,0.8-1.8,0.8-3.4c0-0.9-0.2-1.9-0.7-2.9
				c-0.4-1.1-0.9-2-1.5-2.8c-0.5-0.8-0.9-1.2-1.2-1.2c-0.2,0-0.6,0.4-1.2,1.2c-0.5,0.8-1,1.7-1.5,2.8c-0.4,1.1-0.7,2.1-0.7,2.9
				c0,1.5,0.3,2.7,0.8,3.4c0.5,0.7,1.4,1.1,2.5,1.1C260.5,107.6,261.3,107.3,261.8,106.6z M261.7,76.2c-1-1-1.6-2.4-1.6-4
				c0-1.7,0.5-3,1.6-4.1c1-1,2.4-1.6,4.1-1.6c1.7,0,3,0.5,4.1,1.6c1,1,1.6,2.4,1.6,4.1c0,1.7-0.5,3-1.6,4c-1,1-2.4,1.5-4.1,1.5
				C264.1,77.7,262.7,77.2,261.7,76.2z"/>
			<path class="st0" d="M339.6,109.5c0.3,1.2,0.4,2.8,0.4,4.8c0,2.1-0.1,3.7-0.4,5c-0.3,1.3-0.6,1.9-1,1.9h-5.3
				c-4.9,0-9-0.8-12.3-2.5c-6.4,1.6-13.4,2.5-20.8,2.5c-5.3,0-10.4-0.4-15.5-1.3V106c4.9,1.1,9.9,1.7,15.2,1.7
				c3.6,0,7.2-0.3,10.6-0.8c-0.6-1.5-1.1-2.8-1.5-4.1l-7.1-20.9l14.9-4.3l7.1,20.9c1.1,3.1,1.9,5.3,2.5,6.4s1.3,1.9,2.2,2.2
				c0.9,0.4,2.5,0.6,4.6,0.6h5.3C339,107.6,339.3,108.3,339.6,109.5z"/>
			<path class="st0" d="M399.2,109.5c0.3,1.2,0.4,2.8,0.4,4.8c0,2.1-0.1,3.7-0.4,5c-0.3,1.3-0.6,1.9-1,1.9h-1.1
				c-4.5,0-8.4-0.8-11.6-2.5c-2.8,0.8-5.5,1.5-8.3,1.9c-2.8,0.4-5.3,0.6-7.5,0.6c-4.8,0-9.5-1.1-14.2-3.2c-2.1,2.1-4.9,3.2-8.4,3.2
				h-8.6c-0.4,0-0.7-0.6-1-1.9c-0.3-1.3-0.4-2.9-0.4-5c0-2,0.1-3.6,0.4-4.8c0.3-1.2,0.6-1.9,1-1.9h1c1.2,0,2-0.3,2.6-0.8
				c0.6-0.5,1-1.3,1.3-2.4c0.1-0.3,0.6-2.4,1.4-6.2c0.8-3.8,3-7.3,6.5-10.5c3.5-3.2,7.8-4.8,13-4.8c4.1,0,7.8,0.9,11.3,2.7
				c3.5,1.8,6.4,4.4,8.9,7.6c2.5,3.2,4.3,7,5.6,11.2c0.5,1,0.9,1.8,1.3,2.2c0.4,0.4,0.9,0.7,1.5,0.9c0.7,0.2,1.7,0.2,3,0.2h2.3
				C398.6,107.6,398.9,108.3,399.2,109.5z M365.2,106.9c1.5,0.5,3.1,0.7,4.8,0.7c1.4,0,2.9-0.1,4.6-0.4c-1-3.1-2.4-5.7-4.2-7.8
				c-1.8-2.1-3.6-3.1-5.4-3.1c-2.7,0-4.5,2.6-5.5,7.8C361.8,105.5,363.7,106.4,365.2,106.9z"/>
			<path class="st0" d="M440,107.6v13.5h-41.8c-0.4,0-0.7-0.6-1-1.9c-0.3-1.3-0.4-2.9-0.4-5c0-2,0.1-3.6,0.4-4.8
				c0.3-1.2,0.6-1.9,1-1.9h5.2c-0.5-1.8-0.8-3.5-0.8-5.3c0-3.6,0.9-6.9,2.8-9.9c1.9-3,4.5-5.3,7.7-7c3.2-1.7,6.8-2.6,10.7-2.6
				c4.6,0,9.8,1.4,15.7,4.1L432,98.9c-3.5-1.7-6.2-2.5-8-2.5c-1.7,0-3.1,0.5-4.1,1.6c-1,1.1-1.5,2.5-1.5,4.3c0,1.4,0.3,2.6,1,3.6
				s1.6,1.6,2.8,1.8H440z"/>
			<path class="st0" d="M464.6,54.8v7.4h-20.8v-7.4h1.4c-0.2-0.7-0.3-1.6-0.3-2.6c0-2.1,0.5-4,1.5-5.6c1-1.7,2.4-3,4.2-3.9
				c1.8-0.9,3.8-1.4,6.1-1.4c2.6,0,5,0.5,7.3,1.6l-3.3,7.3c-0.5-0.2-1.1-0.4-1.8-0.6c-0.7-0.2-1.5-0.2-2.2-0.2
				c-1.4,0-2.4,0.3-3.2,0.8c-0.8,0.5-1.2,1.2-1.2,2.1c0,1.2,0.5,2,1.5,2.5H464.6z M446.3,67.9h15.8v53.3h-15.8V67.9z"/>
		</g>
		<g>
			<path class="st1" d="M23.7,174.3c0,1.2-0.2,1.8-0.7,1.8h-3.7v0.1c0,2.4-0.6,4.2-1.9,5.6c-1.3,1.3-3.1,2-5.3,2.1l-0.6-3.7
				c1.4,0.1,2.4-0.2,3-0.8c0.6-0.6,0.9-1.7,0.9-3.2v-16.6h3.9v12.9H23C23.5,172.5,23.7,173.1,23.7,174.3z"/>
			<path class="st1" d="M47.2,174.3c0,1.2-0.2,1.8-0.7,1.8h-6c-2.5,0-4.8-0.4-7-1.3c-2.4,0.9-4.5,1.3-6.2,1.3H23
				c-0.5,0-0.7-0.6-0.7-1.8c0-1.2,0.2-1.8,0.7-1.8h4.3c0.7,0,1.5-0.1,2.2-0.2c-2.1-1.9-3.6-4.3-4.5-7.2l3.3-5.7
				c2-0.6,3.9-0.8,5.8-0.8c1.9,0,3.7,0.3,5.2,0.8c1.5,0.5,2.6,1.2,3.5,2.2c0.8,0.9,1.2,2,1.2,3.2c0,1.4-0.5,2.7-1.5,4
				c-1,1.3-2.4,2.5-4.1,3.6c0.6,0.1,1.3,0.1,2.1,0.1h6C46.9,172.5,47.2,173.1,47.2,174.3z M30.6,167.7c0.9,1.3,2,2.3,3.3,3.1
				c1.8-0.8,3.3-1.8,4.5-2.9c1.2-1.1,1.8-2.1,1.8-3c0-0.8-0.5-1.4-1.6-1.9c-1-0.5-2.5-0.7-4.4-0.7c-1.9,0-3.8,0.4-5.5,1.1
				C29.1,164.9,29.7,166.4,30.6,167.7z"/>
			<path class="st1" d="M79.8,174.3c0,1.2-0.2,1.8-0.7,1.8h-1.9c-1.9,0-3.5-0.5-4.8-1.5c-1.1,1-2.7,1.5-4.8,1.5
				c-2.1,0-3.7-0.5-4.9-1.5c-1.1,1-2.7,1.5-4.8,1.5c-2.1,0-3.7-0.5-4.9-1.5c-1.1,1-2.8,1.5-4.9,1.5h-1.7c-0.5,0-0.7-0.6-0.7-1.8
				c0-1.2,0.2-1.8,0.7-1.8h1.4c1.2,0,2.1-0.2,2.5-0.7c0.5-0.5,0.7-1.3,0.7-2.5V163H55v6.3c0,1-0.1,1.9-0.3,2.7
				c0.7,0.4,1.6,0.5,2.7,0.5c1.3,0,2.2-0.2,2.7-0.7c0.5-0.5,0.7-1.3,0.7-2.5v-8h3.9v8c0,1-0.1,1.9-0.3,2.7c0.7,0.4,1.6,0.5,2.7,0.5
				c1.3,0,2.2-0.2,2.7-0.7c0.5-0.5,0.7-1.3,0.7-2.5v-9.7h3.9v9.7c0,1-0.1,1.9-0.3,2.7c0.6,0.3,1.3,0.5,2.1,0.5h2.9
				C79.6,172.5,79.8,173.1,79.8,174.3z M61.4,153.7c0.4,0.4,0.6,0.9,0.6,1.5c0,0.6-0.2,1.2-0.6,1.5s-0.9,0.6-1.5,0.6
				s-1.1-0.2-1.5-0.6c-0.4-0.4-0.6-0.9-0.6-1.5c0-0.6,0.2-1.1,0.6-1.5c0.4-0.4,0.9-0.6,1.5-0.6S61,153.3,61.4,153.7z M64,149.3
				c0.4,0.4,0.5,0.9,0.5,1.4c0,0.6-0.2,1-0.5,1.4c-0.4,0.4-0.8,0.5-1.4,0.5c-0.6,0-1-0.2-1.4-0.5c-0.4-0.4-0.5-0.8-0.5-1.4
				c0-0.6,0.2-1.1,0.5-1.4c0.4-0.4,0.8-0.6,1.4-0.6C63.2,148.7,63.7,148.9,64,149.3z M66.8,153.7c0.4,0.4,0.6,0.9,0.6,1.5
				c0,0.6-0.2,1.2-0.6,1.5c-0.4,0.4-0.9,0.6-1.5,0.6c-0.6,0-1.1-0.2-1.5-0.6c-0.4-0.4-0.6-0.9-0.6-1.5c0-0.6,0.2-1.1,0.6-1.5
				c0.4-0.4,0.9-0.6,1.5-0.6C65.9,153.1,66.4,153.3,66.8,153.7z"/>
			<path class="st1" d="M85.6,151v25.2h-6.5c-0.5,0-0.7-0.6-0.7-1.8c0-1.2,0.2-1.8,0.7-1.8h2.6V151H85.6z"/>
			<path class="st1" d="M91.4,151h3.9v25.2h-3.9V151z"/>
			<path class="st1" d="M135.7,159.6v16.5l-19,0c-2.4,0-4.2-0.7-5.5-2c-1.3-1.3-2-3.2-2-5.5c0-1.5,0.3-2.9,0.9-4
				c0.6-1.2,1.4-2.2,2.5-3.2l3.1,2.2c-0.9,0.8-1.6,1.6-2,2.4c-0.4,0.8-0.6,1.7-0.6,2.6c0,1.2,0.3,2.1,1,2.8c0.7,0.7,1.6,1.1,2.9,1.1
				h14.8v-12.9H135.7z M118.8,156.6c-0.4-0.4-0.6-0.9-0.6-1.5c0-0.6,0.2-1.1,0.6-1.5c0.4-0.4,0.9-0.6,1.5-0.6c0.6,0,1.1,0.2,1.5,0.6
				c0.4,0.4,0.6,0.9,0.6,1.5c0,0.6-0.2,1.1-0.6,1.5s-0.9,0.6-1.5,0.6C119.7,157.2,119.2,157,118.8,156.6z M124.2,156.6
				c-0.4-0.4-0.6-0.9-0.6-1.5c0-0.6,0.2-1.1,0.6-1.5c0.4-0.4,0.9-0.6,1.5-0.6s1.1,0.2,1.5,0.6c0.4,0.4,0.6,0.9,0.6,1.5
				c0,0.6-0.2,1.1-0.6,1.5s-0.9,0.6-1.5,0.6S124.6,157,124.2,156.6z"/>
			<path class="st1" d="M161.2,174.3c0,1.2-0.2,1.8-0.7,1.8h-3.9v0.1c0,2.4-0.6,4.2-1.9,5.6c-1.3,1.3-3.1,2-5.3,2.1l-0.6-3.7
				c1.4,0.1,2.4-0.2,3-0.8c0.6-0.6,0.9-1.7,0.9-3.2v-0.1h-3.8c-1.7,0-3.3-0.4-4.7-1.2c-1.4-0.8-2.6-1.8-3.4-3.2
				c-0.8-1.3-1.3-2.8-1.3-4.4c0-1.6,0.4-3.1,1.3-4.4c0.9-1.3,2-2.4,3.4-3.2c1.4-0.8,3-1.2,4.7-1.2c1.2,0,2.4,0.2,3.8,0.6
				c1.3,0.4,2.6,1,3.7,1.7l0.2,0.1v11.5h3.9C161,172.5,161.2,173.1,161.2,174.3z M152.7,172.5v-9.4c-1.3-0.6-2.5-0.9-3.7-0.9
				c-1.1,0-2,0.2-2.9,0.7c-0.9,0.5-1.5,1.1-2,1.9c-0.5,0.8-0.7,1.6-0.7,2.6c0,0.9,0.2,1.8,0.7,2.6c0.5,0.8,1.1,1.4,2,1.9
				c0.9,0.5,1.8,0.7,2.9,0.7H152.7z"/>
			<path class="st1" d="M174.5,174.3c0,1.2-0.2,1.8-0.7,1.8h-1.9c-1.9,0-3.5-0.5-4.8-1.5c-1.1,1-2.7,1.5-4.9,1.5h-1.7
				c-0.5,0-0.7-0.6-0.7-1.8c0-1.2,0.2-1.8,0.7-1.8h1.4c1.2,0,2.1-0.2,2.5-0.7c0.5-0.5,0.7-1.3,0.7-2.5v-9.6h3.9v9.7
				c0,1-0.1,1.9-0.3,2.7c0.6,0.3,1.3,0.5,2.1,0.5h2.9C174.3,172.5,174.5,173.1,174.5,174.3z M162.9,182.4c-0.4-0.4-0.6-0.9-0.6-1.5
				c0-0.6,0.2-1.1,0.6-1.5c0.4-0.4,0.9-0.6,1.5-0.6s1.1,0.2,1.5,0.6c0.4,0.4,0.6,0.9,0.6,1.5c0,0.6-0.2,1.1-0.6,1.5
				c-0.4,0.4-0.9,0.6-1.5,0.6S163.3,182.9,162.9,182.4z M168.3,182.4c-0.4-0.4-0.6-0.9-0.6-1.5c0-0.6,0.2-1.1,0.6-1.5
				c0.4-0.4,0.9-0.6,1.5-0.6s1.1,0.2,1.5,0.6c0.4,0.4,0.6,0.9,0.6,1.5c0,0.6-0.2,1.1-0.6,1.5c-0.4,0.4-0.9,0.6-1.5,0.6
				S168.7,182.9,168.3,182.4z"/>
			<path class="st1" d="M181.3,159.6v16.5h-7.5c-0.5,0-0.7-0.6-0.7-1.8c0-1.2,0.2-1.8,0.7-1.8h3.6v-12.9H181.3z M177.4,182.9
				c-0.4-0.5-0.6-1-0.6-1.7c0-0.7,0.2-1.2,0.6-1.7c0.4-0.4,1-0.7,1.6-0.7c0.7,0,1.2,0.2,1.6,0.7c0.4,0.4,0.6,1,0.6,1.7
				c0,0.7-0.2,1.2-0.6,1.7c-0.4,0.5-1,0.7-1.6,0.7C178.4,183.6,177.8,183.4,177.4,182.9z"/>
			<path class="st1" d="M202.2,161v15.2c0,2.4-0.6,4.2-1.9,5.6c-1.3,1.3-3.1,2-5.3,2.1l-0.6-3.7c1.4,0.1,2.4-0.2,3-0.8
				c0.6-0.6,0.9-1.7,0.9-3.2v-0.6c-1.3,0.4-2.5,0.6-3.8,0.6c-1.7,0-3.3-0.4-4.7-1.2c-1.4-0.8-2.6-1.8-3.4-3.2
				c-0.8-1.3-1.3-2.8-1.3-4.4c0-1.6,0.4-3.1,1.3-4.4c0.9-1.3,2-2.4,3.4-3.2c1.4-0.8,3-1.2,4.7-1.2c1.2,0,2.4,0.2,3.8,0.6
				c1.3,0.4,2.6,1,3.7,1.7L202.2,161z M198.3,171.7v-8.5c-1.3-0.6-2.5-0.9-3.7-0.9c-1.1,0-2,0.2-2.9,0.7c-0.9,0.5-1.5,1.1-2,1.9
				c-0.5,0.8-0.7,1.6-0.7,2.6c0,0.9,0.2,1.8,0.7,2.6c0.5,0.8,1.1,1.4,2,1.9c0.9,0.5,1.8,0.7,2.9,0.7
				C195.7,172.5,197,172.2,198.3,171.7z"/>
			<path class="st1" d="M241.5,159.6v16.5l-19,0c-2.4,0-4.2-0.7-5.5-2c-1.3-1.3-2-3.2-2-5.5c0-1.5,0.3-2.9,0.9-4
				c0.6-1.2,1.4-2.2,2.5-3.2l3.1,2.2c-0.9,0.8-1.6,1.6-2,2.4c-0.4,0.8-0.6,1.7-0.6,2.6c0,1.2,0.3,2.1,1,2.8c0.7,0.7,1.6,1.1,2.9,1.1
				h14.8v-12.9H241.5z M224.7,156.6c-0.4-0.4-0.6-0.9-0.6-1.5c0-0.6,0.2-1.1,0.6-1.5c0.4-0.4,0.9-0.6,1.5-0.6c0.6,0,1.1,0.2,1.5,0.6
				c0.4,0.4,0.6,0.9,0.6,1.5c0,0.6-0.2,1.1-0.6,1.5s-0.9,0.6-1.5,0.6C225.5,157.2,225,157,224.7,156.6z M230,156.6
				c-0.4-0.4-0.6-0.9-0.6-1.5c0-0.6,0.2-1.1,0.6-1.5c0.4-0.4,0.9-0.6,1.5-0.6s1.1,0.2,1.5,0.6c0.4,0.4,0.6,0.9,0.6,1.5
				c0,0.6-0.2,1.1-0.6,1.5s-0.9,0.6-1.5,0.6S230.4,157,230,156.6z"/>
			<path class="st1" d="M268.8,174.3c0,1.2-0.2,1.8-0.7,1.8h-1.9c-1.9,0-3.5-0.5-4.8-1.5c-1.1,1-2.7,1.5-4.9,1.5h-11.3v-3.6h4.3
				v-16.8h3.9v16.8h2.8c1.2,0,2.1-0.2,2.5-0.7c0.5-0.5,0.7-1.3,0.7-2.5V151h3.9v18.3c0,1-0.1,1.9-0.3,2.7c0.6,0.3,1.3,0.5,2.1,0.5
				h2.9C268.6,172.5,268.8,173.1,268.8,174.3z"/>
			<path class="st1" d="M302.6,174.3c0,1.2-0.2,1.8-0.7,1.8h-33.8c-0.5,0-0.7-0.6-0.7-1.8c0-1.2,0.2-1.8,0.7-1.8h3.9V151h3.9v15.3
				c1-2.2,2.3-4,4-5.4s3.9-2,6.6-2c2.2,0,4.1,0.5,5.7,1.5c1.5,1,2.7,2.3,3.4,4c0.7,1.7,1.1,3.5,1.1,5.6v2.5h5.1
				C302.4,172.5,302.6,173.1,302.6,174.3z M292.9,172.5V170c0-2.4-0.6-4.2-1.7-5.5c-1.1-1.3-2.6-1.9-4.6-1.9c-1.6,0-3.2,0.4-4.6,1.3
				c-1.5,0.9-2.7,2.1-3.7,3.6c-1,1.5-1.7,3.2-2.1,5H292.9z M285.1,155.3c-0.4-0.5-0.6-1-0.6-1.7c0-0.7,0.2-1.2,0.6-1.7
				c0.4-0.4,1-0.7,1.6-0.7c0.7,0,1.2,0.2,1.6,0.7c0.4,0.4,0.6,1,0.6,1.7c0,0.7-0.2,1.2-0.6,1.7c-0.4,0.5-1,0.7-1.6,0.7
				C286.1,156,285.5,155.7,285.1,155.3z"/>
			<path class="st1" d="M328.2,174.3c0,1.2-0.2,1.8-0.7,1.8h-0.2c-2.2,0-3.9-0.6-5.2-1.8c-1.5,0.6-3,1-4.6,1.3
				c-1.6,0.3-3.1,0.4-4.4,0.4c-2.2,0-4.3-0.5-6.4-1.4c-1.1,0.9-2.6,1.4-4.3,1.4h-0.5c-0.5,0-0.7-0.6-0.7-1.8c0-1.2,0.2-1.8,0.7-1.8
				h0.5c0.7,0,1.3-0.2,1.7-0.5c0.4-0.4,0.7-0.9,0.8-1.7l0.1-0.9c0.2-1.8,0.5-3.5,0.9-5s1.1-3,2.2-4.3c1.1-1.3,2.6-2,4.5-2
				c1.7,0,3.3,0.5,4.8,1.6c1.5,1.1,2.7,2.6,3.7,4.6c1,1.9,1.6,4.1,1.9,6.5c0.6,1.1,1.7,1.7,3.3,1.7h1.3
				C328,172.5,328.2,173.1,328.2,174.3z M313.1,172.5c1.8,0,3.8-0.3,6-1c-0.2-1.7-0.6-3.4-1.2-4.9c-0.7-1.5-1.4-2.7-2.4-3.6
				c-0.9-0.9-1.8-1.3-2.8-1.3c-0.9,0-1.6,0.4-2.1,1.2c-0.5,0.8-0.9,1.7-1.1,2.8c-0.2,1-0.4,2.3-0.5,3.7l-0.2,1.6l-0.1,0.5
				C310.1,172.2,311.6,172.5,313.1,172.5z"/>
			<path class="st1" d="M334,151v25.2h-6.5c-0.5,0-0.7-0.6-0.7-1.8c0-1.2,0.2-1.8,0.7-1.8h2.6V151H334z"/>
			<path class="st1" d="M339.8,151h3.9v25.2h-3.9V151z"/>
			<path class="st1" d="M365.3,161v15.2c0,2.4-0.6,4.2-1.9,5.6c-1.3,1.3-3.1,2-5.3,2.1l-0.6-3.7c1.4,0.1,2.4-0.2,3-0.8
				c0.6-0.6,0.9-1.7,0.9-3.2v-0.6c-1.3,0.4-2.5,0.6-3.8,0.6c-1.7,0-3.3-0.4-4.7-1.2c-1.4-0.8-2.6-1.8-3.4-3.2
				c-0.8-1.3-1.3-2.8-1.3-4.4c0-1.6,0.4-3.1,1.3-4.4c0.9-1.3,2-2.4,3.4-3.2c1.4-0.8,3-1.2,4.7-1.2c1.2,0,2.4,0.2,3.8,0.6
				c1.3,0.4,2.6,1,3.7,1.7L365.3,161z M361.3,171.7v-8.5c-1.3-0.6-2.5-0.9-3.7-0.9c-1.1,0-2,0.2-2.9,0.7c-0.9,0.5-1.5,1.1-2,1.9
				c-0.5,0.8-0.7,1.6-0.7,2.6c0,0.9,0.2,1.8,0.7,2.6c0.5,0.8,1.1,1.4,2,1.9c0.9,0.5,1.8,0.7,2.9,0.7
				C358.8,172.5,360.1,172.2,361.3,171.7z"/>
			<path class="st1" d="M378.9,184.1c-0.7-1.7-1-3.5-1-5.3c0-1.9,0.3-3.7,1-5.2c0.7-1.5,1.7-2.6,2.9-3.2c0,0,0.1-0.4,0.2-1.2
				c0.2-1.8,0.5-3.4,0.9-4.9c0.4-1.5,1.1-2.8,2.2-4c1.1-1.2,2.5-1.8,4.4-1.8c1.9,0,3.8,0.7,5.4,2.1c1.7,1.4,3,3.3,3.9,5.6
				c0.9,2.4,1.3,4.9,1.2,7.6c-1.6,0.7-3.2,1.2-5,1.6s-3.4,0.6-4.9,0.6c-2.3,0-4.5-0.5-6.6-1.6c-0.6,0.3-1.1,0.7-1.4,1.5
				c-0.3,0.7-0.5,1.6-0.5,2.7c0,1.3,0.3,2.7,0.9,4.1c0.6,1.5,1.5,2.8,2.6,4l-3.3,1.8C380.5,187.4,379.6,185.9,378.9,184.1z
				 M396,171.6c-0.1-1.7-0.5-3.2-1.2-4.6c-0.7-1.4-1.5-2.6-2.4-3.4s-1.9-1.3-2.8-1.3c-0.9,0-1.5,0.4-2,1.1c-0.5,0.7-0.9,1.6-1.1,2.5
				c-0.2,1-0.4,2.1-0.6,3.5c-0.1,1.1-0.2,1.8-0.3,2.2c0.8,0.4,1.5,0.6,2.2,0.8c0.7,0.2,1.5,0.2,2.3,0.2
				C391.8,172.5,393.8,172.2,396,171.6z"/>
			<path class="st1" d="M414,174.3c0,1.2-0.2,1.8-0.7,1.8h-8V151h3.9v21.6h4C413.8,172.5,414,173.1,414,174.3z"/>
			<path class="st1" d="M427.3,174.3c0,1.2-0.2,1.8-0.7,1.8h-1.9c-1.9,0-3.5-0.5-4.8-1.5c-1.1,1-2.7,1.5-4.9,1.5h-1.7
				c-0.5,0-0.7-0.6-0.7-1.8c0-1.2,0.2-1.8,0.7-1.8h1.4c1.2,0,2.1-0.2,2.5-0.7c0.5-0.5,0.7-1.3,0.7-2.5v-9.6h3.9v9.7
				c0,1-0.1,1.9-0.3,2.7c0.6,0.3,1.3,0.5,2.1,0.5h2.9C427.1,172.5,427.3,173.1,427.3,174.3z M415.8,182.4c-0.4-0.4-0.6-0.9-0.6-1.5
				c0-0.6,0.2-1.1,0.6-1.5c0.4-0.4,0.9-0.6,1.5-0.6c0.6,0,1.1,0.2,1.5,0.6c0.4,0.4,0.6,0.9,0.6,1.5c0,0.6-0.2,1.1-0.6,1.5
				s-0.9,0.6-1.5,0.6C416.7,183.1,416.2,182.9,415.8,182.4z M421.2,182.4c-0.4-0.4-0.6-0.9-0.6-1.5c0-0.6,0.2-1.1,0.6-1.5
				c0.4-0.4,0.9-0.6,1.5-0.6c0.6,0,1.1,0.2,1.5,0.6c0.4,0.4,0.6,0.9,0.6,1.5c0,0.6-0.2,1.1-0.6,1.5s-0.9,0.6-1.5,0.6
				C422.1,183.1,421.6,182.9,421.2,182.4z"/>
			<path class="st1" d="M449.9,174.3c0,1.2-0.2,1.8-0.7,1.8h-22.6c-0.5,0-0.7-0.6-0.7-1.8c0-1.2,0.2-1.8,0.7-1.8h13.5v-5.2
				c0-1.7-0.5-3.1-1.6-4.1s-2.6-1.5-4.4-1.5c-2,0-3.9,0.6-5.6,1.9l-1.7-3.3c2.2-1.5,4.7-2.2,7.3-2.2c1.9,0,3.6,0.4,5.2,1.2
				c1.5,0.8,2.7,1.9,3.5,3.3c0.9,1.4,1.3,3,1.3,4.8v5.2h5.2C449.7,172.5,449.9,173.1,449.9,174.3z M432.6,154.3
				c-0.4-0.5-0.6-1-0.6-1.7c0-0.7,0.2-1.2,0.6-1.7s1-0.7,1.6-0.7s1.2,0.2,1.6,0.7s0.6,1,0.6,1.7c0,0.7-0.2,1.2-0.6,1.7
				c-0.4,0.5-1,0.7-1.6,0.7S433,154.8,432.6,154.3z"/>
			<path class="st1" d="M460.3,174.3c0,1.2-0.2,1.8-0.7,1.8h-10.3c-0.5,0-0.7-0.6-0.7-1.8c0-1.2,0.2-1.8,0.7-1.8h2.6V151h3.9v21.6
				h3.8C460,172.5,460.3,173.1,460.3,174.3z"/>
			<path class="st1" d="M466.1,151v25.2h-6.5c-0.5,0-0.7-0.6-0.7-1.8c0-1.2,0.2-1.8,0.7-1.8h2.6V151H466.1z"/>
		</g>
	</g>
	<g>
		<g id="XMLID_1_">
			<g>
				<polygon class="st2" points="661.6,20.9 742.6,161.1 643.7,161.1 621.1,122 612.2,106.5 621.1,91 				"/>
				<polygon class="st3" points="643.7,161.1 661.6,192.1 499.6,192.1 580.6,51.9 612.2,106.5 580.6,161.1 				"/>
				<polygon class="st4" points="621.1,122 643.7,161.1 580.6,161.1 612.2,106.5 				"/>
			</g>
			<g>
				<polyline class="st5" points="612.2,106.5 621.1,91 661.6,20.9 742.6,161.1 643.7,161.1 				"/>
				<polyline class="st5" points="612.2,106.5 621.1,122 643.7,161.1 				"/>
				<polygon class="st5" points="643.7,161.1 661.6,192.1 499.6,192.1 580.6,51.9 612.2,106.5 580.6,161.1 				"/>
			</g>
		</g>
	</g>
</g>
</svg>
